# xmcd
#
# Track frame offsets:
#	150
#	13312
#	46857
#	63439
#	78700
#	92855
#	109805
#	136457
#
# Disc length: 2087 seconds
#
# Revision: 1
# Processed by: cddbd v1.4PL0 Copyright (c) Steve Scherf et al.
# Submitted via: audiograbber 1.81.03
#
DISCID=6c082508
DTITLE=staff - blues appeal
DYEAR=1997
DGENRE=Blues
TTITLE0=i should
TTITLE1=one room country shack
TTITLE2=forward again
TTITLE3=dreams
TTITLE4=staff jam
TTITLE5=she caught the katy
TTITLE6=à mon frère - blues for staff
TTITLE7=sweet home chicago
EXTD=
EXTT0=
EXTT1=
EXTT2=
EXTT3=
EXTT4=
EXTT5=
EXTT6=
EXTT7=
PLAYORDER=
